<svg xmlns="http://www.w3.org/2000/svg" width="429.338" height="91.207" viewBox="0 0 429.338 91.207">
  <g id="Group_9" data-name="Group 9" transform="translate(-157.496 -1421.576)">
    <g id="Group_7" data-name="Group 7" transform="translate(157.496 1421.576)">
      <g id="Group_3" data-name="Group 3" transform="translate(0 0)">
        <g id="Group_1" data-name="Group 1" transform="translate(0 0.088)">
          <path id="Path_1" data-name="Path 1" d="M7.083,255.871l-.013-2.583a2.375,2.375,0,1,0-.8-.075l.013,2.319-4.726,4.739L.238,260.3c0,.088-.013.176-.013.251s-.013.176-.013.251v.012c0,.1-.013.188-.013.288l1.692-.025Zm-.827-3.51a1.55,1.55,0,1,1,.827.1,1.217,1.217,0,0,1-.213.013A1.413,1.413,0,0,1,6.255,252.361Z" transform="translate(-0.175 -217.508)" fill="#fff"/>
          <path id="Path_2" data-name="Path 2" d="M104.646,97.928a2.96,2.96,0,0,0,.4-5.892V84.2l-.038.038c-.063.05-.113.1-.176.15a.332.332,0,0,1-.075.063c-.088.075-.163.15-.251.213-.025.013-.038.038-.063.05h0c-.063.063-.138.113-.2.176v7.146a2.961,2.961,0,0,0,.4,5.892Zm-.4-5.065v.815a1.362,1.362,0,0,0-.953,1.291,1.354,1.354,0,1,0,2.708,0,1.362,1.362,0,0,0-.953-1.291v-.815a2.144,2.144,0,1,1-.8,0Z" transform="translate(-88.95 -73.719)" fill="#fff"/>
          <path id="Path_3" data-name="Path 3" d="M11.622,85.96v-5.6l1.655-1.6,3.648-1.116,3.8-3.8V57a1.633,1.633,0,0,0-.188.125l-.013.013c-.2.138-.4.263-.6.4V73.511L16.5,76.934,12.85,78.049l-2.056,1.968v5.6L1.981,94.36,0,94.385v.8l2.332-.025Z" transform="translate(0 -49.929)" fill="#fff"/>
          <path id="Path_4" data-name="Path 4" d="M111.155,69.695a1.855,1.855,0,1,0,1.868,1.855,1.971,1.971,0,0,0-.1-.614l5.7-5.942V46c-.038.025-.088.05-.125.075-.226.125-.464.263-.69.4v18.2l-5.341,5.566A1.828,1.828,0,0,0,111.155,69.695Z" transform="translate(-95.597 -40.308)" fill="#fff"/>
          <path id="Path_5" data-name="Path 5" d="M618.055,270.174a1.855,1.855,0,1,0,1.855,1.855,1.8,1.8,0,0,0-.288-.99l8.124-8.049a.178.178,0,0,0-.025-.075c-.012-.063-.038-.138-.05-.2s-.038-.138-.05-.2l-.113-.414h0l-8.45,8.375A1.818,1.818,0,0,0,618.055,270.174Z" transform="translate(-538.948 -229.316)" fill="#fff"/>
          <path id="Path_6" data-name="Path 6" d="M651.154,355.2V355l-9.854,9.779c.188.025.376.038.577.063.15.013.313.038.464.05l8.826-8.751V355.6C651.154,355.476,651.154,355.339,651.154,355.2Z" transform="translate(-560.901 -310.569)" fill="#fff"/>
          <path id="Path_7" data-name="Path 7" d="M305.2,233.317a1.717,1.717,0,1,0,1.7-1.517A1.619,1.619,0,0,0,305.2,233.317Z" transform="translate(-266.937 -202.815)" fill="#fff"/>
          <path id="Path_8" data-name="Path 8" d="M95.551,312.317s-.113-1.316-.138-1.592c-.013-.2.088-.4.476-.627.5-.3,1.053-.627,1.053-.627l1.367-2.645a.627.627,0,0,0-.025-.564h0a3.893,3.893,0,0,0-1.755-1.041,6.73,6.73,0,0,0-.8-.088.568.568,0,0,0,.288-.4.536.536,0,0,0-.338-.577c-.476-.276-1.2-.69-1.855-1.066h0l-1.467-.74-.451.451-2.006-.815.389-.527-5.817-1.768-.777.589-3.021-.564-.376-.8-6.331-.94-.614.84-4.576-.226-.414-.69H61.99l-.414.69-4.589.226-.614-.84-6.331.94-.364.8-3.021.564-.777-.589-5.817,1.768.389.527-2.006.815-.451-.451-1.467.74h0c-.652.376-1.379.79-1.855,1.066a.551.551,0,0,0-.339.577.568.568,0,0,0,.288.4,6.73,6.73,0,0,0-.8.088,3.864,3.864,0,0,0-1.768,1.041h0a.627.627,0,0,0-.025.564l.577,1.116-9.591,9.591L23,321.645c.251.664.527,1.329.8,1.981l.013-5.754,9.164-9.164h0l.4.777s.125.075.326.188l-1.4,1.4v8.751l-.476.476a1.693,1.693,0,1,0-1.066,3.009,1.689,1.689,0,0,0,1.555-2.357h0l.79-.79v-8.738l1.354-1.316h0c.376.226.489.426.476.627-.025.276-.138,1.592-.138,1.592-.025.276-.025.464.113.6a6.864,6.864,0,0,1,.865.865v.163c0,2.006.038,7.221.038,8.926.013-.013.038-.013.05-.025.176-.075.351-.138.539-.213.251-.1.5-.188.752-.288l.376-.138c.251-.1.5-.188.765-.276s.514-.188.765-.276c.125-.05.251-.088.389-.138v-4.814l3.122,3.059v.69l.113-.038c.063-.025.113-.038.176-.063a.928.928,0,0,1,.176-.05c.3-.1.589-.188.89-.288.113-.038.226-.063.326-.1.013,0,.013,0,.025-.013l.226-.075.226-.075c.15-.05.313-.088.464-.138.113-.038.213-.063.326-.1.213-.063.439-.125.664-.188.15-.05.3-.088.464-.138h0V308.118l4.024.276.276-.326v.865l-3.26,3.26-.013,6.745c.063-.013.125-.038.188-.05h.013c.138-.038.276-.075.4-.113.013,0,.038-.013.05-.013l.15-.038.013-6.193,2.457-2.445v1.768l-1.429,1.492.013,4.062.827.827c.025,0,.05-.013.075-.013.075-.013.15-.038.226-.05.05-.012.1-.025.138-.038l.15-.038h.013l.3-.075c1.63-.389,3.272-.765,4.952-1.1V309.1l4.1-3.974c.376-.025.765-.038,1.153-.063h.313v7.485h-.364a2.243,2.243,0,1,0-.025.815h.4v2.558c.038-.013.088-.013.125-.025q3.272-.527,6.632-.9V311.6a3.055,3.055,0,0,0,4.413-4.012l1.153-1.153V311.8l-2.946,2.921a2.657,2.657,0,0,1,.313-.025c.313-.025.639-.063.953-.088l1.68-1.655v1.53c1.555-.113,3.134-.213,4.714-.276.125,0,.238-.013.364-.013a.948.948,0,0,0,.188-.013v-1.931l4.3-4.25v6.068c1.254-.012,2.507-.012,3.749.013a3.054,3.054,0,0,1,.338.013v-2.332l2.382-2.407h0c.176.075.339.163.514.238l.226.113h0v4.463c.125,0,.251.013.376.013s.251.013.376.013.213.013.326.013c.138,0,.276.013.414.025.063,0,.138.013.2.013.1,0,.213.012.313.012l.6.038.6.038c.075,0,.15.013.226.013s.15.013.226.013v-.539a7.16,7.16,0,0,1,.878-.865A.75.75,0,0,0,95.551,312.317Zm-52.968,6.331-3.122-3.072v-5.9h0l.226-.113c.476-.238.99-.464,1.517-.677.113-.038.226-.088.338-.138.226-.088.451-.176.69-.263.113-.038.238-.088.351-.125v10.293Zm8.387-.978-.6-.6-.013-3.4.627-.652v4.651Zm0-10.857-.627.765-3.673-.238v-.226h0c.15-.038.288-.075.451-.113.552-.138,1.128-.276,1.718-.4a1.964,1.964,0,0,1,.263-.05c.351-.075.715-.15,1.078-.213h.025c.213-.038.426-.088.639-.125.05-.013.1-.013.15-.025v.627Zm5.265,1.141v-2.507h0c.928-.1,1.881-.176,2.846-.251Zm2.959,6.344a1.454,1.454,0,1,1,1.454-1.454A1.455,1.455,0,0,1,59.194,314.3Zm11.12-2.971a2.211,2.211,0,0,1-1.755-.852v-2.833a2.335,2.335,0,0,1,1.755-.815,2.25,2.25,0,0,1,0,4.5Zm2.47-4.726-.176.176-.138.138a3.037,3.037,0,0,0-3.912-.326v-1.542h.313c1.743.075,3.448.2,5.09.376Zm6.607,4.476v-4.889a.632.632,0,0,0,.15.025c.213.038.426.075.639.125h.038c.364.063.727.138,1.078.213.088.013.175.038.251.05.589.125,1.153.263,1.718.4.075.013.15.038.226.05Zm8.387-.489v-2.219c.125.038.238.088.351.125.238.088.464.176.69.263.113.05.226.088.339.138.075.025.138.063.213.088Z" transform="translate(-20.117 -260.628)" fill="#fff"/>
          <path id="Path_9" data-name="Path 9" d="M17,41.257c-.025.263-.05.514-.063.777l.827-.414.389.489,1.655-.7-.376-.514L25.5,38.863l.9.664,3.448-.69.3-.8,6.206-.89.727.8L42,37.7l.4-.664h6.231l.389.664,4.914.251.727-.8,6.206.89.3.8,3.448.69.89-.664,6.068,2.031-.376.514,1.655.7.389-.489.827.414a26.075,26.075,0,0,0-.364-3l3.021-3V28.607l7.058-6.971a2.838,2.838,0,0,0-.163-.251,1.145,1.145,0,0,1-.1-.163l-.075-.113-.013-.013c-.038-.05-.063-.1-.1-.15l-7.422,7.322V35.7l-2.395,2.382c-.125-.6-.276-1.191-.439-1.78h0l1.542-1.529L74.606,27.3l2.833-2.7V23.442a2.952,2.952,0,1,0-.815,0v.815l-2.833,2.708L73.8,34.45l-.99.978a28.541,28.541,0,0,0-6.256-10.807h0L77.489,13.776l-.1-.1-.188-.188c-.1-.1-.188-.188-.288-.276L66.005,24.019c-.351-.364-.727-.727-1.1-1.066L75.772,12.134c-.15-.138-.3-.276-.451-.4l-.025-.025c-.038-.038-.088-.075-.125-.113L64.3,22.414c-.339-.3-.69-.589-1.041-.865l10.87-10.832a1.844,1.844,0,0,0-.163-.125,1.842,1.842,0,0,0-.163-.125c-.063-.05-.125-.1-.176-.138s-.088-.075-.138-.113L62.6,21.06h0a29.081,29.081,0,0,0-6.268-3.548l2.783-2.771a2.294,2.294,0,0,0,1.291.414,2.269,2.269,0,0,0,2.269-2.269,2.314,2.314,0,0,0-.4-1.291L67.61,6.279c-.1-.063-.2-.113-.313-.176-.038-.025-.075-.038-.113-.063h-.013c-.1-.063-.213-.113-.313-.176L61.68,11.018a2.192,2.192,0,0,0-1.291-.4,2.252,2.252,0,0,0-1.855,3.535l-3.046,3.021a28.423,28.423,0,0,0-4.965-1.354V9.426L57.756,2.18c-.05-.013-.1-.025-.138-.038h-.013L57.493,2.1a1.67,1.67,0,0,0-.238-.063c-.125-.038-.263-.075-.389-.1l-5.7,5.729a4.93,4.93,0,0,0-.238-.727c-.025-.075-.063-.138-.088-.213s-.075-.163-.113-.238h0c-.075-.163-.163-.313-.251-.464l-.15-.226c-.05-.075-.1-.138-.15-.213-.088-.1-.163-.2-.251-.3a1.373,1.373,0,0,0-.125-.138l3.874-3.9c-.163-.025-.326-.063-.489-.088a2.126,2.126,0,0,1-.276-.05c-.038,0-.075-.013-.113-.013s-.075-.013-.113-.013h0L49.193,4.6a5.3,5.3,0,0,0-1.041-.677H48.14c-.075-.038-.163-.075-.238-.113a5.566,5.566,0,0,0-.765-.276,4.233,4.233,0,0,0-.6-.138l-.2-.038-.276-.038a.312.312,0,0,1-.1-.013c-.138-.013-.288-.013-.426-.013h-.075c-.138,0-.288.013-.426.013a.276.276,0,0,0-.1.013l-.276.038-.213.038a5.2,5.2,0,0,0-.6.138,7.918,7.918,0,0,0-.765.276c-.075.038-.163.075-.238.113h-.013a5.9,5.9,0,0,0-1.3.9c-.063.063-.138.125-.2.188a3,3,0,0,0-.276.288c-.088.1-.176.2-.251.3-.05.075-.1.138-.15.213l-.15.226c-.088.15-.176.3-.263.464h0c-.038.088-.075.163-.113.238a1.529,1.529,0,0,0-.088.213,5.45,5.45,0,0,0-.389,1.617H40.4v4.839l-3.134,3.159h0a28.939,28.939,0,0,0-7.159,3.26h0V13.137L42.649.6c-.05,0-.1.013-.15.013L41.483.688A.094.094,0,0,0,41.42.7L29.31,12.8v7.56c-.489.338-.965.677-1.429,1.041l.025-9.44L39.051.976c-.063.013-.113.013-.176.025s-.125.013-.188.025c-.088.013-.176.025-.276.038l-.226.038c-.025,0-.063.013-.088.013l-.251.038h0a.847.847,0,0,1-.176.025L27.241,11.482l-.125.113-.025,10.431q-.715.6-1.392,1.241l.025-12.01,9.227-9.516c-.05.013-.1.025-.163.038s-.1.025-.163.038-.138.038-.2.05a.924.924,0,0,0-.176.05c-.088.025-.176.05-.276.075s-.238.063-.351.1c-.063.013-.125.038-.188.05l-8.525,8.8V24.094a28.6,28.6,0,0,0-5.541,8.187L3.409,48.1H.5c.013.238.025.476.05.715a.213.213,0,0,0,.013.088h3.2L18.6,34.174c-.276.765-.527,1.542-.74,2.332L3.609,50.773H.726c.025.276.063.539.1.815H3.935L17.488,38.023v.013c-.138.627-.251,1.266-.338,1.906L1.553,55.662c.063.251.113.514.176.765.013.05.025.113.038.163l15.22-15.345C17,41.245,17,41.245,17,41.257ZM74.894,20.5A2.144,2.144,0,1,1,77.439,22.6v-.815a1.362,1.362,0,0,0,.953-1.291,1.354,1.354,0,1,0-2.708,0,1.362,1.362,0,0,0,.953,1.291V22.6A2.141,2.141,0,0,1,74.894,20.5Zm-14.48-9.089a1.442,1.442,0,0,1,1.454,1.454,1.455,1.455,0,0,1-1.454,1.454,1.338,1.338,0,0,1-.7-.188,1.467,1.467,0,0,1-.564-.577,1.452,1.452,0,0,1,1.266-2.144Zm.965,11.973a24.929,24.929,0,0,1,4.1,5.78,21.59,21.59,0,0,1,2.244,6.569c.063.426.125.965.138,1.141a.6.6,0,0,0,.389.451,8.387,8.387,0,0,0,.853.176c-.125.614-.351.8-.752.79a5.76,5.76,0,0,1-1-.163.67.67,0,0,1-.514-.652,25.951,25.951,0,0,0-2.558-8,23.384,23.384,0,0,0-3.41-5.353A67.131,67.131,0,0,0,55.4,18.941,30.643,30.643,0,0,1,61.379,23.38ZM55.336,25.9a23.424,23.424,0,0,1,2.219,7.61c.038.326.075.777.075.978,0,.464.389.577.6.627.163.038.439.075.652.125-.15.677-.389.865-1.015.765-1.2-.176-1.229-.226-1.316-1.454a25.5,25.5,0,0,0-4.15-12.7c-.251-.376-.552-.74-.827-1.116A17.931,17.931,0,0,1,55.336,25.9Zm-4.275,2.42a2.542,2.542,0,0,1,2.67,2.369,2.689,2.689,0,1,1-2.67-2.369ZM46.536,15.394V13.45l2.056-2.056v4.15C47.915,15.456,47.225,15.419,46.536,15.394Zm0-5.516a.113.113,0,0,1,.013-.063.5.5,0,0,1,.038-.188c.013-.038.013-.075.038-.1a.252.252,0,0,1,.05-.1c.013-.025.038-.063.05-.088a.333.333,0,0,1,.063-.075L46.8,9.25l.075-.075a.273.273,0,0,1,.1-.063.252.252,0,0,1,.1-.05c.038-.013.075-.025.125-.038a.213.213,0,0,1,.088-.013h.075c.038,0,.088-.013.138-.013h.125a.213.213,0,0,1,.088.013.629.629,0,0,1,.15.025c.038.013.063.025.1.038s.063.025.1.038.038.025.063.038.063.038.088.05a.332.332,0,0,1,.075.063l.038.038a.546.546,0,0,1,.075.088h0a.262.262,0,0,1,.05.075.375.375,0,0,1,.05.1.951.951,0,0,1,.05.138.319.319,0,0,1,.025.088A1.2,1.2,0,0,1,48.6,10v.238L46.548,12.3V10C46.536,10,46.536,9.953,46.536,9.877ZM42.4,10a1.2,1.2,0,0,1,.025-.213.319.319,0,0,1,.025-.088.952.952,0,0,1,.05-.138.375.375,0,0,1,.05-.1c.013-.025.025-.063.05-.075h0c.025-.025.05-.063.075-.088l.038-.038a.332.332,0,0,1,.075-.063.314.314,0,0,1,.088-.05.274.274,0,0,1,.063-.038c.038-.013.063-.025.1-.038s.063-.025.1-.038a.629.629,0,0,1,.15-.025c.025,0,.063-.013.088-.013H43.5a.47.47,0,0,1,.138.013h.075c.038,0,.063.013.088.013s.088.025.125.038a.375.375,0,0,1,.1.05c.038.025.063.038.1.063s.063.05.075.075a.012.012,0,0,0,.013.013.262.262,0,0,1,.05.075.545.545,0,0,1,.05.088c.013.013.013.025.025.05L42.4,11.432Zm0,2.57,2.056-2.081v4.889c-.69.025-1.379.075-2.056.15Zm.213,18.116a2.689,2.689,0,1,1-2.67-2.369A2.525,2.525,0,0,1,42.611,30.689ZM40.443,14.554V15.82c-.527.1-1.053.2-1.58.326H38.85Zm-1.028,6.168c-.276.364-.564.727-.827,1.116a25.487,25.487,0,0,0-4.137,12.7c-.088,1.241-.125,1.279-1.329,1.454-.639.1-.878-.088-1.015-.765.226-.038.5-.088.664-.125.213-.05.6-.163.6-.627,0-.2.038-.652.075-.978a23.424,23.424,0,0,1,2.219-7.61A18.481,18.481,0,0,1,39.415,20.722ZM22.74,37.321a.559.559,0,0,0,.389-.451c.025-.163.075-.715.138-1.141a22.166,22.166,0,0,1,2.244-6.569,25.309,25.309,0,0,1,4.1-5.78A30.316,30.316,0,0,1,35.6,18.941a64.979,64.979,0,0,0-5.466,5.178,22.457,22.457,0,0,0-3.41,5.353,25.621,25.621,0,0,0-2.558,8,.652.652,0,0,1-.514.652,5.956,5.956,0,0,1-1,.163c-.389.013-.627-.176-.752-.79C22.264,37.421,22.452,37.408,22.74,37.321Z" transform="translate(-0.437 -0.6)" fill="#fff"/>
          <path id="Path_10" data-name="Path 10" d="M388.205,234.834a1.527,1.527,0,1,0-1.705-1.517A1.619,1.619,0,0,0,388.205,234.834Z" transform="translate(-338.045 -202.815)" fill="#fff"/>
          <path id="Path_11" data-name="Path 11" d="M662.8,385.247l6.156-6.131c.025-.3.037-.614.063-.915a191.375,191.375,0,0,0,.025-.3l-7.246,7.221C662.126,385.159,662.464,385.2,662.8,385.247Z" transform="translate(-578.831 -330.598)" fill="#fff"/>
          <path id="Path_12" data-name="Path 12" d="M680.627,405.7l.5.075,3.5-3.473h0a1.238,1.238,0,0,0,.025-.213c.012-.1.025-.188.037-.288a1.539,1.539,0,0,0,.025-.238c.025-.188.05-.364.063-.552V401l-4.676,4.626Q680.382,405.664,680.627,405.7Z" transform="translate(-594.837 -350.802)" fill="#fff"/>
          <path id="Path_13" data-name="Path 13" d="M614.156,313.088v-.05a1.531,1.531,0,0,1-.025-.238h0L599.4,327.405l1.078.075,13.766-13.665C614.219,313.577,614.194,313.339,614.156,313.088Z" transform="translate(-524.254 -273.66)" fill="#fff"/>
          <path id="Path_14" data-name="Path 14" d="M633.186,333.4,620.9,345.636c.238.025.464.038.7.063h.038a2.637,2.637,0,0,0,.313.025l11.308-11.258C633.236,334.115,633.211,333.751,633.186,333.4Z" transform="translate(-543.058 -291.677)" fill="#fff"/>
        </g>
        <g id="Group_2" data-name="Group 2" transform="translate(0.013 0)">
          <path id="Path_15" data-name="Path 15" d="M122.6,87.1c-.138.113-.276.238-.4.351C122.325,87.338,122.463,87.213,122.6,87.1Z" transform="translate(-106.892 -76.168)" fill="#135eab"/>
          <path id="Path_16" data-name="Path 16" d="M125.764,84.6c-.125.1-.238.2-.364.313A4.35,4.35,0,0,1,125.764,84.6Z" transform="translate(-109.691 -73.981)" fill="#135eab"/>
          <path id="Path_17" data-name="Path 17" d="M20.021,61.4V77.372L16.6,80.795,12.95,81.91l-2.056,1.968v5.6l-8.8,8.751L.1,98.259c0-.288.013-.577.025-.865l1.692-.025,5.19-5.2L7,89.583a2.375,2.375,0,1,0-.8-.075l.013,2.319L1.479,96.566l-1.316.013c-.013.176-.013.338-.025.514A45.057,45.057,0,0,1,15.4,64.973v7.146a2.965,2.965,0,1,0,.815,0V64.271A47.321,47.321,0,0,1,20.021,61.4Z" transform="translate(-0.1 -53.69)" fill="#135eab"/>
          <path id="Path_18" data-name="Path 18" d="M128.338,84.3l-.038.038.038-.038Z" transform="translate(-112.228 -73.719)" fill="#135eab"/>
          <path id="Path_19" data-name="Path 19" d="M33.41,12.7c-.063.013-.125.038-.188.05l-8.525,8.8L24.66,34.69a28.6,28.6,0,0,0-5.541,8.187L3.171,58.71H.263C.225,57.946.2,57.168.2,56.391v.075l2.332-.025,9.29-9.215v-5.6l1.655-1.6L17.125,38.9l3.8-3.8V18.266a1.634,1.634,0,0,0-.188.125c.552-.364,1.1-.7,1.667-1.041v18.2l-5.341,5.566a1.853,1.853,0,1,0,.552,1.316,1.971,1.971,0,0,0-.1-.614l5.7-5.942V16.887A44.6,44.6,0,0,1,33.41,12.7Z" transform="translate(-0.187 -11.095)" fill="#135eab"/>
          <path id="Path_20" data-name="Path 20" d="M213.673,5.5,203.242,15.805l-.125.113-.025,10.431q-.715.6-1.392,1.241l.025-12.01,9.24-9.516c-.05.013-.1.025-.163.038C211.755,5.864,212.707,5.663,213.673,5.5Z" transform="translate(-176.426 -4.798)" fill="#135eab"/>
          <path id="Path_21" data-name="Path 21" d="M232.84,1.5,220.729,13.6v7.56c-.489.338-.965.677-1.429,1.041l.025-9.44L230.433,1.776C231.235,1.663,232.025,1.575,232.84,1.5Z" transform="translate(-191.819 -1.299)" fill="#135eab"/>
          <path id="Path_22" data-name="Path 22" d="M259.379.489c-.038,0-.075-.013-.113-.013h0l-3.485,3.51a5.3,5.3,0,0,0-1.041-.677h-.013c-.075-.038-.163-.075-.238-.113a5.566,5.566,0,0,0-.765-.276,4.232,4.232,0,0,0-.6-.138l-.2-.038-.276-.038a.311.311,0,0,1-.1-.013c-.138-.013-.288-.025-.426-.025h-.075c-.138,0-.288.013-.426.025a.276.276,0,0,0-.1.013l-.276.038-.213.038a5.2,5.2,0,0,0-.6.138,7.921,7.921,0,0,0-.765.276c-.075.038-.163.075-.238.113h-.013a5.9,5.9,0,0,0-1.3.9c-.063.063-.138.125-.2.188a3,3,0,0,0-.276.288c-.088.1-.175.2-.251.3-.05.075-.1.138-.15.213l-.15.226c-.088.15-.176.3-.263.464h0c-.038.088-.075.163-.113.238a1.53,1.53,0,0,0-.088.213,5.45,5.45,0,0,0-.389,1.617h.765V12.8l-3.134,3.159h0a28.94,28.94,0,0,0-7.159,3.26h0V12.525L249.237-.012c.953-.063,1.906-.088,2.871-.088A47.171,47.171,0,0,1,259.379.489Z" transform="translate(-207.038 0.1)" fill="#135eab"/>
          <path id="Path_23" data-name="Path 23" d="M99.161,186.616h0L84.43,201.221c-.238-.013-.476-.038-.7-.05v-.539a7.152,7.152,0,0,1,.878-.865c.15-.138.15-.326.113-.6,0,0-.113-1.316-.138-1.592-.013-.2.088-.4.476-.627.5-.3,1.053-.627,1.053-.627l1.367-2.645a.627.627,0,0,0-.025-.564h0a3.894,3.894,0,0,0-1.755-1.041,6.717,6.717,0,0,0-.8-.088.568.568,0,0,0,.288-.4.536.536,0,0,0-.338-.577c-.476-.276-1.2-.69-1.855-1.066h0l-1.467-.74-.451.451-2.006-.815.389-.527-5.817-1.768-.777.589-3.021-.564-.376-.8-6.331-.94-.614.84-4.576-.226-.4-.7H51.169l-.414.69-4.589.226-.614-.84-6.331.94-.364.8-3.021.564-.777-.589L29.242,188.3l.389.527-2.006.815-.451-.451-1.467.74h0c-.652.376-1.379.79-1.855,1.066a.551.551,0,0,0-.338.577.568.568,0,0,0,.288.4,6.71,6.71,0,0,0-.8.088,3.864,3.864,0,0,0-1.768,1.041h0a.627.627,0,0,0-.025.564l.577,1.116-9.591,9.591-.013,4.112a47.809,47.809,0,0,1-1.58-5.027l15.22-15.345v.013c-.025.263-.05.514-.063.777l.827-.414.389.489,1.655-.7-.376-.514,6.068-2.031.9.664,3.448-.69.3-.8,6.206-.89.727.8,4.914-.251.4-.664H57.45l.389.664,4.914.251.727-.8,6.206.89.3.8,3.448.69.89-.664,6.068,2.031-.376.514,1.655.7.389-.489.827.414a26.078,26.078,0,0,0-.364-3l3.021-3v-7.434L92.6,168.5c.238.376.464.752.69,1.128a45.117,45.117,0,0,1,4.538,10.619l-8.425,8.375a1.818,1.818,0,0,0-1-.3,1.855,1.855,0,1,0,1.855,1.855,1.8,1.8,0,0,0-.288-.99l8.124-8.049A44.514,44.514,0,0,1,99.161,186.616Z" transform="translate(-9.284 -147.363)" fill="#135eab"/>
          <path id="Path_24" data-name="Path 24" d="M609.717,329.643c.238.025.464.038.7.063-.765-.075-1.542-.138-2.319-.2l13.766-13.665c-.025-.251-.05-.489-.088-.74.025.226.05.451.075.664v.063c.05.514.1,1.028.138,1.555Z" transform="translate(-531.876 -275.584)" fill="#135eab"/>
          <path id="Path_25" data-name="Path 25" d="M630.992,353.509c.188.025.376.038.577.063-.689-.075-1.379-.15-2.069-.213L640.808,342.1c.025.539.038,1.091.05,1.63Z" transform="translate(-550.593 -299.199)" fill="#135eab"/>
          <path id="Path_26" data-name="Path 26" d="M513.11,81.3,502.241,92.122c-.339-.3-.69-.589-1.041-.865l10.87-10.832a1.854,1.854,0,0,0-.163-.125C512.32,80.626,512.721,80.964,513.11,81.3Z" transform="translate(-438.378 -70.22)" fill="#135eab"/>
          <path id="Path_27" data-name="Path 27" d="M526.611,91.155c-.1-.1-.188-.188-.288-.276L515.4,101.711c-.351-.364-.727-.727-1.1-1.066L525.169,89.8c-.151-.138-.3-.276-.451-.4C525.37,89.964,526,90.553,526.611,91.155Z" transform="translate(-449.835 -78.179)" fill="#135eab"/>
          <path id="Path_28" data-name="Path 28" d="M544.475,113.121c-.038-.05-.063-.1-.1-.15l-7.422,7.322v7.434l-2.395,2.382c-.125-.6-.276-1.191-.439-1.78h0l1.542-1.53-.013-7.472,2.833-2.7v-1.166a2.952,2.952,0,1,0-.815,0v.815l-2.833,2.708.013,7.485-.99.978a28.541,28.541,0,0,0-6.256-10.807h0L538.532,105.8A44.761,44.761,0,0,1,544.475,113.121Z" transform="translate(-461.468 -92.523)" fill="#135eab"/>
          <path id="Path_29" data-name="Path 29" d="M658.363,365.381a.615.615,0,0,1,.012-.15l-7.246,7.221-1.53-.188,8.826-8.751V363.4C658.426,364.064,658.4,364.716,658.363,365.381Z" transform="translate(-568.173 -317.828)" fill="#135eab"/>
          <path id="Path_30" data-name="Path 30" d="M676.056,387.7c-.038.564-.1,1.128-.163,1.68l-4.676,4.626-1.316-.188Z" transform="translate(-585.928 -339.082)" fill="#135eab"/>
          <path id="Path_31" data-name="Path 31" d="M688.4,411.6c-.188,1.329-.439,2.633-.74,3.924-1.078-.188-2.156-.364-3.26-.527l.5.075Z" transform="translate(-598.61 -359.986)" fill="#135eab"/>
          <path id="Path_32" data-name="Path 32" d="M542.922,389.464v4.463c-.125,0-.263-.012-.389-.012-.9-.038-1.818-.063-2.733-.075v-2.332l2.382-2.407h0c.176.075.339.163.514.238a2.017,2.017,0,0,0,.226.125Z" transform="translate(-472.138 -340.306)" fill="#135eab"/>
          <path id="Path_33" data-name="Path 33" d="M477.2,378.3v6.068h-.263c-1.341.013-2.683.05-4.037.1h0v-1.931Z" transform="translate(-413.626 -330.86)" fill="#135eab"/>
          <path id="Path_34" data-name="Path 34" d="M419.18,417.8v1.529h-.1c-.527.038-1.053.088-1.58.125Z" transform="translate(-365.171 -365.408)" fill="#135eab"/>
          <path id="Path_35" data-name="Path 35" d="M392.154,365.9v5.366l-2.946,2.921-2.608.263h0v-3.385a3.055,3.055,0,0,0,4.413-4.012Z" transform="translate(-338.145 -320.015)" fill="#135eab"/>
          <path id="Path_36" data-name="Path 36" d="M288.99,362.885a2.266,2.266,0,0,0,4.476.5h.4v2.558c-1.805.288-3.586.614-5.341.965a1.463,1.463,0,0,0-.226.05v-7.823l4.1-3.974c.376-.025.765-.038,1.153-.063h.313v7.484H293.5a2.268,2.268,0,0,0-4.513.3Z" transform="translate(-252.169 -310.569)" fill="#135eab"/>
          <path id="Path_37" data-name="Path 37" d="M229.057,396.968l-1.429,1.492.013,4.062.827.827c.025,0,.05-.013.075-.013-.652.163-1.3.338-1.943.5l.012-6.193,2.457-2.445v1.768Z" transform="translate(-198.204 -345.642)" fill="#135eab"/>
          <path id="Path_38" data-name="Path 38" d="M216.2,379.2v.865l-3.26,3.26-.013,6.745c-.213.063-.426.113-.639.175-.125.038-.263.075-.389.113V379.275l4.024.276Z" transform="translate(-185.347 -331.647)" fill="#135eab"/>
          <path id="Path_39" data-name="Path 39" d="M157.434,451.159v.69h0c-.878.276-1.743.577-2.608.878l-.527.188V448.1Z" transform="translate(-134.968 -391.91)" fill="#135eab"/>
          <path id="Path_40" data-name="Path 40" d="M41.8,398.379a95.758,95.758,0,0,0-10.08,4.639,43.229,43.229,0,0,1-1.918-3.9l.013-5.754,9.164-9.164h0l.4.777s.125.075.326.188l-1.442,1.4v8.751l-.476.476a1.693,1.693,0,1,0-1.066,3.009,1.689,1.689,0,0,0,1.555-2.357h0l.79-.79v-8.738l1.354-1.316h0c.376.226.489.426.476.627-.025.276-.138,1.592-.138,1.592-.025.276-.025.464.113.6a6.863,6.863,0,0,1,.865.865v.163C41.76,391.446,41.8,396.674,41.8,398.379Z" transform="translate(-26.077 -336.021)" fill="#135eab"/>
          <path id="Path_41" data-name="Path 41" d="M19.874,299.2h0c-.138.639-.251,1.266-.338,1.906L3.927,316.839c-.3-1.341-.552-2.7-.727-4.074H6.309Z" transform="translate(-2.811 -261.677)" fill="#135eab"/>
          <path id="Path_42" data-name="Path 42" d="M19.053,268.6c-.276.765-.527,1.542-.74,2.332L4.059,285.186H1.176c-.075-.614-.125-1.229-.176-1.855H4.2Z" transform="translate(-0.887 -234.913)" fill="#135eab"/>
          <path id="Path_43" data-name="Path 43" d="M463.163,49.824,452.268,60.668h0A29.079,29.079,0,0,0,446,57.121l2.783-2.771a2.294,2.294,0,0,0,1.291.414,2.269,2.269,0,0,0,2.269-2.269,2.314,2.314,0,0,0-.4-1.291l5.341-5.3A44.426,44.426,0,0,1,463.163,49.824Z" transform="translate(-390.098 -40.133)" fill="#135eab"/>
          <path id="Path_44" data-name="Path 44" d="M416.449,16.974c-.1-.063-.213-.113-.313-.176l-5.178,5.153a2.192,2.192,0,0,0-1.291-.4,2.252,2.252,0,0,0-1.855,3.535l-3.046,3.021a28.424,28.424,0,0,0-4.965-1.354V20.384l7.234-7.246c-.05-.013-.1-.025-.138-.038A44.232,44.232,0,0,1,416.449,16.974Z" transform="translate(-349.69 -11.445)" fill="#135eab"/>
          <path id="Path_45" data-name="Path 45" d="M400.983,5.977l-5.717,5.729a4.921,4.921,0,0,0-.238-.727c-.025-.075-.063-.138-.088-.213s-.075-.163-.113-.238h0c-.075-.163-.163-.313-.251-.464l-.15-.226c-.05-.075-.1-.138-.15-.213-.088-.1-.163-.2-.251-.3a1.365,1.365,0,0,0-.125-.138l3.874-3.9c-.163-.025-.326-.063-.489-.088C398.514,5.4,399.755,5.664,400.983,5.977Z" transform="translate(-344.53 -4.536)" fill="#135eab"/>
          <path id="Path_46" data-name="Path 46" d="M308.092,112v1.266c-.527.1-1.053.2-1.58.326H306.5Z" transform="translate(-268.087 -97.946)" fill="#135eab"/>
          <path id="Path_47" data-name="Path 47" d="M185,147a64.973,64.973,0,0,0-5.466,5.178,22.457,22.457,0,0,0-3.41,5.353,25.62,25.62,0,0,0-2.558,8,.667.667,0,0,1-.514.652,5.958,5.958,0,0,1-1,.163c-.389.013-.627-.176-.752-.79a8.382,8.382,0,0,0,.853-.175.559.559,0,0,0,.389-.451c.025-.163.075-.715.138-1.141a22.165,22.165,0,0,1,2.244-6.569,25.31,25.31,0,0,1,4.1-5.78A30.643,30.643,0,0,1,185,147Z" transform="translate(-149.837 -128.558)" fill="#135eab"/>
          <path id="Path_48" data-name="Path 48" d="M260.009,161.3c-.276.364-.564.727-.827,1.116a25.487,25.487,0,0,0-4.137,12.7c-.088,1.241-.125,1.279-1.329,1.454-.639.1-.878-.088-1.015-.765.226-.038.5-.088.664-.125.213-.05.6-.163.6-.627,0-.2.038-.652.075-.978a23.425,23.425,0,0,1,2.219-7.61A18.128,18.128,0,0,1,260.009,161.3Z" transform="translate(-221.032 -141.065)" fill="#135eab"/>
          <path id="Path_49" data-name="Path 49" d="M296.67,221.8a2.386,2.386,0,1,0,2.67,2.369A2.534,2.534,0,0,0,296.67,221.8Zm.451,4.3a1.527,1.527,0,1,1,1.705-1.517A1.619,1.619,0,0,1,297.122,226.1Z" transform="translate(-257.154 -193.981)" fill="#135eab"/>
          <path id="Path_50" data-name="Path 50" d="M452.2,165.555c-.125.614-.351.8-.752.79a5.76,5.76,0,0,1-1-.163.67.67,0,0,1-.514-.652,25.949,25.949,0,0,0-2.557-8,23.383,23.383,0,0,0-3.41-5.353A67.127,67.127,0,0,0,438.5,147a29.914,29.914,0,0,1,5.98,4.438,24.928,24.928,0,0,1,4.1,5.78,21.59,21.59,0,0,1,2.244,6.569c.063.426.125.965.138,1.141a.6.6,0,0,0,.389.451C451.651,165.467,451.839,165.479,452.2,165.555Z" transform="translate(-383.538 -128.558)" fill="#135eab"/>
          <path id="Path_51" data-name="Path 51" d="M415.409,175.805c-.15.677-.389.865-1.016.765-1.2-.175-1.229-.226-1.316-1.454a25.5,25.5,0,0,0-4.15-12.7c-.251-.376-.552-.74-.827-1.116a18.292,18.292,0,0,1,3.761,5.178,23.424,23.424,0,0,1,2.219,7.61c.038.326.075.777.075.978,0,.464.389.577.6.627A5.508,5.508,0,0,1,415.409,175.805Z" transform="translate(-356.949 -141.065)" fill="#135eab"/>
          <path id="Path_52" data-name="Path 52" d="M385.27,221.8a2.386,2.386,0,1,0,2.67,2.369A2.534,2.534,0,0,0,385.27,221.8Zm-.464,4.3a1.527,1.527,0,1,1,1.705-1.517A1.619,1.619,0,0,1,384.806,226.1Z" transform="translate(-334.646 -193.981)" fill="#135eab"/>
          <path id="Path_53" data-name="Path 53" d="M598.288,144.444a2.151,2.151,0,0,1-1.743,2.106v-.815a1.362,1.362,0,0,0,.953-1.291,1.354,1.354,0,1,0-2.708,0,1.362,1.362,0,0,0,.953,1.291v.815a2.144,2.144,0,1,1,2.545-2.106Z" transform="translate(-519.543 -124.447)" fill="#135eab"/>
          <path id="Path_54" data-name="Path 54" d="M470,88.354a1.455,1.455,0,0,1-1.454,1.454,1.338,1.338,0,0,1-.7-.188,1.466,1.466,0,0,1-.564-.577,1.452,1.452,0,0,1,1.279-2.144,1.442,1.442,0,0,1,1.279.752A1.859,1.859,0,0,1,470,88.354Z" transform="translate(-408.553 -75.993)" fill="#135eab"/>
          <path id="Path_55" data-name="Path 55" d="M369.956,86.7v4.15c-.677-.075-1.367-.125-2.056-.15V88.756Z" transform="translate(-321.789 -75.818)" fill="#135eab"/>
          <path id="Path_56" data-name="Path 56" d="M369.869,68.79v.238L367.8,71.085V68.678a.113.113,0,0,1,.013-.063.5.5,0,0,1,.038-.188c.012-.038.012-.075.038-.1a.25.25,0,0,1,.05-.1c.013-.025.038-.063.05-.088a.331.331,0,0,1,.063-.075l.013-.013.075-.075a.273.273,0,0,1,.1-.063.252.252,0,0,1,.1-.05c.038-.013.075-.025.125-.038a.214.214,0,0,1,.088-.013h.075c.038,0,.088-.013.138-.013h.125a.213.213,0,0,1,.088.013.631.631,0,0,1,.151.025c.038.013.063.025.1.038s.063.025.1.038.038.025.063.038.063.038.088.05a.331.331,0,0,1,.075.063l.038.038a.547.547,0,0,1,.075.088h0a.261.261,0,0,1,.05.075.375.375,0,0,1,.05.1.967.967,0,0,1,.05.138.32.32,0,0,1,.025.088A1.028,1.028,0,0,1,369.869,68.79Z" transform="translate(-321.702 -59.287)" fill="#135eab"/>
          <path id="Path_57" data-name="Path 57" d="M336.956,79.7v4.889c-.69.025-1.379.075-2.056.15V81.781Z" transform="translate(-292.927 -69.696)" fill="#135eab"/>
          <path id="Path_58" data-name="Path 58" d="M336.756,68.164,334.8,70.132V68.7a1.2,1.2,0,0,1,.025-.213.318.318,0,0,1,.025-.088.952.952,0,0,1,.05-.138.378.378,0,0,1,.05-.1c.013-.025.025-.063.05-.075h0c.025-.025.05-.063.075-.088l.038-.038a.331.331,0,0,1,.075-.063.314.314,0,0,1,.088-.05.274.274,0,0,1,.063-.038c.038-.013.063-.025.1-.038s.063-.025.1-.038a.63.63,0,0,1,.15-.025c.025,0,.063-.013.088-.013h.125a.47.47,0,0,1,.138.013h.075c.038,0,.063.013.088.013s.088.025.125.038a.375.375,0,0,1,.1.05c.038.025.063.038.1.063s.063.05.075.075a.012.012,0,0,0,.013.013.262.262,0,0,1,.05.075.548.548,0,0,1,.05.088Q336.756,68.145,336.756,68.164Z" transform="translate(-292.839 -59.2)" fill="#135eab"/>
          <path id="Path_59" data-name="Path 59" d="M44.359,256.555a1.529,1.529,0,0,1-1.316,1.517,1.216,1.216,0,0,1-.213.013,1.309,1.309,0,0,1-.589-.125,1.54,1.54,0,0,1,.6-2.959A1.572,1.572,0,0,1,44.359,256.555Z" transform="translate(-36.135 -223.018)" fill="#135eab"/>
          <path id="Path_60" data-name="Path 60" d="M541.392,382.114l-1.592,1.6V381.5c.125.038.238.088.351.125.238.088.464.176.69.263.113.05.226.088.338.138C541.242,382.052,541.317,382.089,541.392,382.114Z" transform="translate(-472.138 -333.659)" fill="#135eab"/>
          <path id="Path_61" data-name="Path 61" d="M476.974,364.965l-4.074,4.024V364.1a.631.631,0,0,0,.15.025c.213.038.426.075.639.125h.038c.364.063.727.138,1.078.213.088.013.176.038.251.05.589.125,1.153.263,1.718.4C476.824,364.927,476.9,364.953,476.974,364.965Z" transform="translate(-413.626 -318.441)" fill="#135eab"/>
          <path id="Path_62" data-name="Path 62" d="M390.6,371.457a2.242,2.242,0,0,1-2.244,2.244,2.21,2.21,0,0,1-1.755-.853v-2.833a2.335,2.335,0,0,1,1.755-.815A2.261,2.261,0,0,1,390.6,371.457Z" transform="translate(-338.145 -322.901)" fill="#135eab"/>
          <path id="Path_63" data-name="Path 63" d="M391.991,355.376l-1.166,1.178-.175.176-.138.138a3.037,3.037,0,0,0-3.911-.326V355h.313C388.644,355.088,390.349,355.213,391.991,355.376Z" transform="translate(-338.145 -310.481)" fill="#135eab"/>
          <path id="Path_64" data-name="Path 64" d="M303.109,407.054a1.454,1.454,0,1,1-1.454-1.454A1.455,1.455,0,0,1,303.109,407.054Z" transform="translate(-262.577 -354.738)" fill="#135eab"/>
          <path id="Path_65" data-name="Path 65" d="M291.058,356.2l-2.858,2.758v-2.507h0C289.14,356.35,290.093,356.263,291.058,356.2Z" transform="translate(-252.081 -311.531)" fill="#135eab"/>
          <path id="Path_66" data-name="Path 66" d="M241.914,418.6v4.651l-.6-.6-.013-3.4Z" transform="translate(-211.061 -366.108)" fill="#135eab"/>
          <path id="Path_67" data-name="Path 67" d="M216.2,364.1v.627l-.627.765-3.673-.238v-.226h0c.15-.038.288-.075.451-.113.552-.138,1.128-.276,1.718-.4a1.949,1.949,0,0,1,.263-.05c.351-.075.715-.15,1.078-.213h.025c.213-.038.426-.088.639-.125C216.112,364.113,216.15,364.113,216.2,364.1Z" transform="translate(-185.347 -318.441)" fill="#135eab"/>
          <path id="Path_68" data-name="Path 68" d="M157.522,381.5v10.28l-3.122-3.072v-5.892h0l.226-.113c.476-.238.99-.464,1.517-.677.113-.038.226-.088.338-.138.226-.088.451-.176.69-.263C157.283,381.588,157.409,381.538,157.522,381.5Z" transform="translate(-135.056 -333.659)" fill="#135eab"/>
          <path id="Path_69" data-name="Path 69" d="M112.588,155.506a2.144,2.144,0,1,1-2.545-2.106v.815a1.362,1.362,0,0,0-.953,1.291,1.354,1.354,0,0,0,2.708,0,1.362,1.362,0,0,0-.953-1.291V153.4A2.151,2.151,0,0,1,112.588,155.506Z" transform="translate(-94.735 -134.156)" fill="#135eab"/>
          <path id="Path_70" data-name="Path 70" d="M255.391,375.293Zm-21.6-1.693v.038h0V373.6Zm-21.889-.3Z" transform="translate(-185.347 -326.487)" fill="#135eab"/>
        </g>
      </g>
      <g id="Group_5" data-name="Group 5" transform="translate(0.013 69.605)">
        <g id="Group_4" data-name="Group 4" transform="translate(0)">
          <path id="Path_71" data-name="Path 71" d="M20.823,561.694a11.07,11.07,0,0,0-2.319-3.435,10.822,10.822,0,0,0-3.435-2.307,10.523,10.523,0,0,0-4.2-.852,10.479,10.479,0,0,0-4.2.852,10.767,10.767,0,0,0-3.423,2.307A11.035,11.035,0,0,0,.94,561.694a10.593,10.593,0,0,0-.84,4.225,10.471,10.471,0,0,0,.84,4.2,11.124,11.124,0,0,0,2.307,3.423,10.911,10.911,0,0,0,3.423,2.307,10.772,10.772,0,0,0,8.4,0,11.037,11.037,0,0,0,3.435-2.307,11.159,11.159,0,0,0,2.319-3.423,10.689,10.689,0,0,0,0-8.425Zm-4.137,6.695a6.35,6.35,0,0,1-1.354,2.019,6.641,6.641,0,0,1-1.993,1.367,5.8,5.8,0,0,1-2.457.514,5.854,5.854,0,0,1-2.47-.514,6.444,6.444,0,0,1-3.385-3.385,6.1,6.1,0,0,1-.514-2.47,5.853,5.853,0,0,1,.514-2.47,6.656,6.656,0,0,1,1.367-2.031,6.522,6.522,0,0,1,2.018-1.392,6.043,6.043,0,0,1,2.47-.5,5.984,5.984,0,0,1,2.457.5,6.563,6.563,0,0,1,3.347,3.423,6.043,6.043,0,0,1,.5,2.47A6.128,6.128,0,0,1,16.686,568.389Z" transform="translate(-0.1 -555.1)" fill="#6d6e71"/>
          <path id="Path_72" data-name="Path 72" d="M209.535,563.025a5.763,5.763,0,0,0-1.254-2.144,6.145,6.145,0,0,0-2.232-1.5,8.735,8.735,0,0,0-3.335-.577H193.3v20.874h4.589v-7.484h4.827a8.791,8.791,0,0,0,3.335-.564,6.3,6.3,0,0,0,2.232-1.5,5.842,5.842,0,0,0,1.254-2.131,7.906,7.906,0,0,0,.389-2.482A7.561,7.561,0,0,0,209.535,563.025Zm-4.388,4.075a2.514,2.514,0,0,1-.89.953,3.794,3.794,0,0,1-1.279.464,9.937,9.937,0,0,1-1.517.113H197.9v-6.256h3.56a8.548,8.548,0,0,1,1.517.125,3.371,3.371,0,0,1,1.279.451,2.514,2.514,0,0,1,.89.953,3.943,3.943,0,0,1,0,3.2Z" transform="translate(-169.079 -558.336)" fill="#6d6e71"/>
          <path id="Path_73" data-name="Path 73" d="M338.1,559.1v3.849l6.632-.025v17.013h4.588V562.924l6.569.025V559.1Z" transform="translate(-295.725 -558.599)" fill="#6d6e71"/>
          <path id="Path_74" data-name="Path 74" d="M501,558.8v20.874h4.589V558.8Z" transform="translate(-438.203 -558.336)" fill="#6d6e71"/>
          <path id="Path_75" data-name="Path 75" d="M579.73,572.082c-.263-.138-.539-.276-.79-.414s-.527-.276-.84-.439-.7-.364-1.191-.614a6.192,6.192,0,0,1-2.232,2.357,6.023,6.023,0,0,1-3.2.89,5.946,5.946,0,0,1-2.407-.489,6.268,6.268,0,0,1-1.968-1.329,6.063,6.063,0,0,1-1.329-1.968,6.164,6.164,0,0,1,1.329-6.77,6.485,6.485,0,0,1,1.968-1.329,5.793,5.793,0,0,1,2.407-.5,5.891,5.891,0,0,1,3.1.84,5.715,5.715,0,0,1,2.156,2.181c.489-.226.89-.426,1.2-.577s.589-.3.84-.426.514-.263.79-.4.639-.339,1.091-.577a11.141,11.141,0,0,0-1.617-2.194,10.419,10.419,0,0,0-2.131-1.718,10.59,10.59,0,0,0-2.557-1.1,10.291,10.291,0,0,0-2.858-.4,10.158,10.158,0,0,0-4.125.84,10.563,10.563,0,0,0-3.36,2.282,11.013,11.013,0,0,0-2.269,3.372,10.293,10.293,0,0,0-.84,4.1,10.1,10.1,0,0,0,.84,4.112,10.578,10.578,0,0,0,5.629,5.616,10.572,10.572,0,0,0,7.058.426,10.3,10.3,0,0,0,4.776-2.934,10.632,10.632,0,0,0,1.642-2.294C580.37,572.382,580.006,572.219,579.73,572.082Z" transform="translate(-490.593 -556.849)" fill="#6d6e71"/>
        </g>
      </g>
    </g>
    <g id="Group_8" data-name="Group 8" transform="translate(261.162 1448.89)">
      <g id="Group_6" data-name="Group 6" transform="translate(0)">
        <path id="Path_76" data-name="Path 76" d="M.6,765.2h0a5.633,5.633,0,0,1,5.748-5.7,5.623,5.623,0,0,1,5.748,5.657v.045a5.66,5.66,0,0,1-5.748,5.7A5.632,5.632,0,0,1,.6,765.2Zm9.5,0h0a3.738,3.738,0,1,0-7.467-.045v.045a3.737,3.737,0,1,0,7.467,0Z" transform="translate(-0.464 -756.513)" fill="#6d6e71"/>
        <path id="Path_77" data-name="Path 77" d="M29.8,759.9h8.192v1.765H31.746v2.987h5.567v1.765H31.746v4.48H29.8Z" transform="translate(-16.449 -756.732)" fill="#6d6e71"/>
        <path id="Path_78" data-name="Path 78" d="M51.5,759.9h1.946v11H51.5Z" transform="translate(-28.328 -756.732)" fill="#6d6e71"/>
        <path id="Path_79" data-name="Path 79" d="M59.8,765.2h0a5.557,5.557,0,0,1,5.657-5.7,5.725,5.725,0,0,1,4.3,1.72l-1.222,1.448a4.316,4.316,0,0,0-3.077-1.358,3.67,3.67,0,0,0-3.621,3.892v.045a3.7,3.7,0,0,0,3.621,3.892,4.261,4.261,0,0,0,3.168-1.448l1.222,1.267a5.71,5.71,0,0,1-4.48,1.946A5.593,5.593,0,0,1,59.8,765.2Z" transform="translate(-32.872 -756.513)" fill="#6d6e71"/>
        <path id="Path_80" data-name="Path 80" d="M85.3,759.9h1.946v11H85.3Z" transform="translate(-46.831 -756.732)" fill="#6d6e71"/>
        <path id="Path_81" data-name="Path 81" d="M94.7,759.9h1.81l5.883,7.6v-7.6h1.9v11h-1.629L96.6,763.068V770.9H94.7Z" transform="translate(-51.977 -756.732)" fill="#6d6e71"/>
        <path id="Path_82" data-name="Path 82" d="M123.542,759.7h1.81l4.843,11.088h-2.037l-1.131-2.67h-5.2l-1.131,2.67H118.7Zm2.761,6.743-1.9-4.39-1.9,4.39Z" transform="translate(-65.115 -756.622)" fill="#6d6e71"/>
        <path id="Path_83" data-name="Path 83" d="M155.9,759.9h4.345c2.58,0,4.164,1.448,4.164,3.666v.045c0,2.489-1.991,3.756-4.39,3.756h-2.172v3.53H155.9Zm4.164,5.748c1.448,0,2.353-.815,2.353-1.946v-.045c0-1.267-.905-1.946-2.353-1.946H157.8v3.983h2.263Z" transform="translate(-85.48 -756.732)" fill="#6d6e71"/>
        <path id="Path_84" data-name="Path 84" d="M177.7,759.9h4.888a4.385,4.385,0,0,1,3.168,1.086,3.244,3.244,0,0,1,.905,2.353v.045a3.329,3.329,0,0,1-2.625,3.349l2.987,4.164H184.76l-2.715-3.847h-2.4V770.9H177.7Zm4.752,5.476c1.4,0,2.263-.724,2.263-1.855v-.045c0-1.177-.86-1.81-2.263-1.81h-2.806v3.711h2.806Z" transform="translate(-97.414 -756.732)" fill="#6d6e71"/>
        <path id="Path_85" data-name="Path 85" d="M201.345,759.9h8.146v1.72h-6.245v2.851h5.521v1.72h-5.521v2.942h6.291v1.72H201.3V759.9Z" transform="translate(-110.333 -756.732)" fill="#6d6e71"/>
        <path id="Path_86" data-name="Path 86" d="M221.6,769.04l1.177-1.4a5.138,5.138,0,0,0,3.485,1.448c1.177,0,1.946-.543,1.946-1.4v-.045c0-.769-.453-1.222-2.489-1.675-2.353-.588-3.666-1.267-3.666-3.3v-.045c0-1.9,1.584-3.213,3.756-3.213a6.018,6.018,0,0,1,3.983,1.4l-1.041,1.448a5.132,5.132,0,0,0-2.987-1.131c-1.131,0-1.81.588-1.81,1.313v.045c0,.86.5,1.222,2.625,1.72,2.308.588,3.53,1.4,3.53,3.213v.045c0,2.082-1.629,3.3-3.937,3.3A6.644,6.644,0,0,1,221.6,769.04Z" transform="translate(-121.446 -756.458)" fill="#6d6e71"/>
        <path id="Path_87" data-name="Path 87" d="M244.4,759.9h1.946v11H244.4Z" transform="translate(-133.927 -756.732)" fill="#6d6e71"/>
        <path id="Path_88" data-name="Path 88" d="M253.7,759.9h4.118c3.44,0,5.838,2.353,5.838,5.476v.045a5.538,5.538,0,0,1-5.838,5.521H253.7Zm4.118,9.232a3.564,3.564,0,0,0,3.8-3.711v-.045a3.6,3.6,0,0,0-3.8-3.756h-2.172v7.468h2.172Z" transform="translate(-139.018 -756.732)" fill="#6d6e71"/>
        <path id="Path_89" data-name="Path 89" d="M279.5,759.9h8.146v1.72H281.4v2.851h5.567v1.72h-5.521v2.942h6.291v1.72H279.5Z" transform="translate(-153.142 -756.732)" fill="#6d6e71"/>
        <path id="Path_90" data-name="Path 90" d="M301.4,759.9h1.81l5.883,7.6v-7.6h1.9v11h-1.629l-6.064-7.829V770.9h-1.9Z" transform="translate(-165.131 -756.732)" fill="#6d6e71"/>
        <path id="Path_91" data-name="Path 91" d="M326.4,765.2h0a5.557,5.557,0,0,1,5.657-5.7,5.725,5.725,0,0,1,4.3,1.72l-1.222,1.448a4.316,4.316,0,0,0-3.078-1.358,3.67,3.67,0,0,0-3.621,3.892v.045a3.7,3.7,0,0,0,3.621,3.892,4.261,4.261,0,0,0,3.168-1.448l1.222,1.267a5.71,5.71,0,0,1-4.48,1.946A5.593,5.593,0,0,1,326.4,765.2Z" transform="translate(-178.816 -756.513)" fill="#6d6e71"/>
        <path id="Path_92" data-name="Path 92" d="M351.9,759.9h1.946v11H351.9Z" transform="translate(-192.776 -756.732)" fill="#6d6e71"/>
        <path id="Path_93" data-name="Path 93" d="M364.043,759.7h1.81l4.842,11.088h-2.037l-1.131-2.67h-5.2l-1.131,2.67H359.2Zm2.761,6.743-1.9-4.39-1.9,4.39Z" transform="translate(-196.772 -756.622)" fill="#6d6e71"/>
        <path id="Path_94" data-name="Path 94" d="M387.4,759.9h1.946v9.232h5.793V770.9H387.4Z" transform="translate(-212.209 -756.732)" fill="#6d6e71"/>
        <path id="Path_95" data-name="Path 95" d="M416.5,759.9h4.118c3.44,0,5.838,2.353,5.838,5.476v.045a5.538,5.538,0,0,1-5.838,5.521H416.5Zm4.118,9.232a3.564,3.564,0,0,0,3.8-3.711v-.045a3.6,3.6,0,0,0-3.8-3.756h-2.172v7.468h2.172Z" transform="translate(-228.14 -756.732)" fill="#6d6e71"/>
        <path id="Path_96" data-name="Path 96" d="M442.245,759.9h8.146v1.72h-6.246v2.851h5.521v1.72h-5.521v2.942h6.291v1.72H442.2V759.9Z" transform="translate(-242.209 -756.732)" fill="#6d6e71"/>
        <path id="Path_97" data-name="Path 97" d="M474.985,761.71H471.5V759.9h8.916v1.81h-3.485v9.232h-1.946Z" transform="translate(-258.248 -756.732)" fill="#6d6e71"/>
        <path id="Path_98" data-name="Path 98" d="M494.245,759.9h8.146v1.72h-6.246v2.851h5.521v1.72h-5.521v2.942h6.291v1.72H494.2V759.9Z" transform="translate(-270.675 -756.732)" fill="#6d6e71"/>
        <path id="Path_99" data-name="Path 99" d="M515.1,765.2h0a5.557,5.557,0,0,1,5.657-5.7,5.725,5.725,0,0,1,4.3,1.72l-1.222,1.448a4.316,4.316,0,0,0-3.078-1.358,3.67,3.67,0,0,0-3.62,3.892v.045a3.7,3.7,0,0,0,3.62,3.892,4.261,4.261,0,0,0,3.168-1.448l1.222,1.267a5.711,5.711,0,0,1-4.48,1.946A5.593,5.593,0,0,1,515.1,765.2Z" transform="translate(-282.116 -756.513)" fill="#6d6e71"/>
        <path id="Path_100" data-name="Path 100" d="M540.4,759.9h1.81l5.883,7.6v-7.6h1.9v11h-1.629l-6.064-7.829V770.9h-1.9Z" transform="translate(-295.966 -756.732)" fill="#6d6e71"/>
        <path id="Path_101" data-name="Path 101" d="M565.4,765.2h0a5.748,5.748,0,0,1,11.5-.045v.045a5.748,5.748,0,0,1-11.5,0Zm9.5,0h0a3.738,3.738,0,1,0-7.468-.045v.045a3.737,3.737,0,1,0,7.468,0Z" transform="translate(-309.652 -756.513)" fill="#6d6e71"/>
        <path id="Path_102" data-name="Path 102" d="M594.6,759.9h1.946v9.232h5.793V770.9H594.6Z" transform="translate(-325.637 -756.732)" fill="#6d6e71"/>
        <path id="Path_103" data-name="Path 103" d="M612.3,765.2h0a5.748,5.748,0,0,1,11.5-.045v.045a5.748,5.748,0,0,1-11.5,0Zm9.459,0h0a3.738,3.738,0,1,0-7.467-.045v.045a3.737,3.737,0,1,0,7.467,0Z" transform="translate(-335.326 -756.513)" fill="#6d6e71"/>
        <path id="Path_104" data-name="Path 104" d="M640.4,765.2h0a5.584,5.584,0,0,1,5.657-5.7,5.958,5.958,0,0,1,4.209,1.493l-1.222,1.448a4.309,4.309,0,0,0-3.078-1.177,3.718,3.718,0,0,0-3.575,3.892v.045a3.685,3.685,0,0,0,3.756,3.937,4.562,4.562,0,0,0,2.67-.815v-2.082h-2.806v-1.674h4.707v4.616a7.093,7.093,0,0,1-4.571,1.72A5.526,5.526,0,0,1,640.4,765.2Z" transform="translate(-350.709 -756.513)" fill="#6d6e71"/>
        <path id="Path_105" data-name="Path 105" d="M667.6,756.068h1.946v11H667.6Zm1.946-3.168,1.72.769-1.991,1.539h-1.493Z" transform="translate(-365.599 -752.9)" fill="#6d6e71"/>
        <path id="Path_106" data-name="Path 106" d="M679.742,759.7h1.81l4.843,11.088h-2.036l-1.131-2.67h-5.2l-1.131,2.67H674.9Zm2.761,6.743-1.9-4.39-1.9,4.39Z" transform="translate(-369.595 -756.622)" fill="#6d6e71"/>
        <path id="Path_107" data-name="Path 107" d="M700.9,769.04l1.177-1.4a5.138,5.138,0,0,0,3.485,1.448c1.177,0,1.946-.543,1.946-1.4v-.045c0-.769-.453-1.222-2.489-1.675-2.353-.588-3.666-1.267-3.666-3.3v-.045c0-1.9,1.584-3.213,3.756-3.213a6.019,6.019,0,0,1,3.983,1.4l-1.041,1.448a5.132,5.132,0,0,0-2.987-1.131c-1.131,0-1.81.588-1.81,1.313v.045c0,.86.5,1.222,2.625,1.72,2.308.588,3.53,1.4,3.53,3.213v.045c0,2.082-1.629,3.3-3.937,3.3A6.644,6.644,0,0,1,700.9,769.04Z" transform="translate(-383.828 -756.458)" fill="#6d6e71"/>
        <path id="Path_108" data-name="Path 108" d="M.3,801.6H4.418c3.44,0,5.838,2.354,5.838,5.476v.045a5.538,5.538,0,0,1-5.838,5.521H.3Zm4.118,9.233a3.564,3.564,0,0,0,3.8-3.711v-.045a3.6,3.6,0,0,0-3.8-3.756H2.246v7.513Z" transform="translate(-0.3 -779.56)" fill="#6d6e71"/>
        <path id="Path_109" data-name="Path 109" d="M27.5,801.6h8.146v1.72h-6.2v2.851h5.521v1.72H29.446v2.942h6.291v1.72H27.5Z" transform="translate(-15.19 -779.56)" fill="#6d6e71"/>
        <path id="Path_110" data-name="Path 110" d="M61.2,801.6h1.946v9.233h5.793V812.6H61.2Z" transform="translate(-33.638 -779.56)" fill="#6d6e71"/>
        <path id="Path_111" data-name="Path 111" d="M85.443,801.4h1.81L92.1,812.488H90.059l-1.131-2.67h-5.2l-1.131,2.67H80.6Zm2.761,6.743-1.9-4.39-1.9,4.39Z" transform="translate(-44.258 -779.45)" fill="#6d6e71"/>
        <path id="Path_112" data-name="Path 112" d="M120.8,801.6h1.946v11H120.8Z" transform="translate(-66.265 -779.56)" fill="#6d6e71"/>
        <path id="Path_113" data-name="Path 113" d="M131.6,801.6h1.81l5.883,7.6v-7.6h1.9v11h-1.629l-6.064-7.83v7.83h-1.9Z" transform="translate(-72.177 -779.56)" fill="#6d6e71"/>
        <path id="Path_114" data-name="Path 114" d="M159,801.6h8.192v1.765h-6.245v2.987h5.567v1.765h-5.567V812.6H159Z" transform="translate(-87.177 -779.56)" fill="#6d6e71"/>
        <path id="Path_115" data-name="Path 115" d="M180.5,806.9h0a5.748,5.748,0,0,1,11.5-.045v.045a5.748,5.748,0,0,1-11.5,0Zm9.5,0h0a3.738,3.738,0,1,0-7.467-.045v.045a3.737,3.737,0,1,0,7.467,0Z" transform="translate(-98.947 -779.341)" fill="#6d6e71"/>
        <path id="Path_116" data-name="Path 116" d="M211.1,801.6h4.888a4.384,4.384,0,0,1,3.168,1.086,3.244,3.244,0,0,1,.905,2.353v.045a3.329,3.329,0,0,1-2.625,3.349l2.987,4.164H218.16l-2.715-3.847h-2.4V812.6H211.1Zm4.752,5.431c1.4,0,2.263-.724,2.263-1.855v-.045c0-1.177-.86-1.81-2.263-1.81h-2.806v3.711h2.806Z" transform="translate(-115.698 -779.56)" fill="#6d6e71"/>
        <path id="Path_117" data-name="Path 117" d="M236.2,801.6h2.082l3.349,5.2,3.349-5.2h2.082v11h-1.946v-7.875l-3.485,5.2h-.091l-3.44-5.159v7.875h-1.9Z" transform="translate(-129.438 -779.56)" fill="#6d6e71"/>
        <path id="Path_118" data-name="Path 118" d="M269.143,801.4h1.81l4.843,11.088h-2.037l-1.131-2.67h-5.2l-1.131,2.67H264.3Zm2.761,6.743-1.9-4.39-1.9,4.39Z" transform="translate(-144.821 -779.45)" fill="#6d6e71"/>
        <path id="Path_119" data-name="Path 119" d="M291.2,806.9h0a5.557,5.557,0,0,1,5.657-5.7,5.724,5.724,0,0,1,4.3,1.72l-1.222,1.448a4.316,4.316,0,0,0-3.077-1.358,3.67,3.67,0,0,0-3.621,3.892v.045a3.7,3.7,0,0,0,3.621,3.892,4.261,4.261,0,0,0,3.168-1.448l1.222,1.267a5.71,5.71,0,0,1-4.48,1.946A5.593,5.593,0,0,1,291.2,806.9Z" transform="translate(-159.547 -779.341)" fill="#6d6e71"/>
        <path id="Path_120" data-name="Path 120" d="M318.2,801.6h1.946v11H318.2Z" transform="translate(-174.327 -779.56)" fill="#6d6e71"/>
        <path id="Path_121" data-name="Path 121" d="M327.9,803.07h0a5.748,5.748,0,0,1,11.5-.045v.045a5.748,5.748,0,0,1-11.5,0Zm9.459,0h0a3.762,3.762,0,0,0-3.756-3.937,3.714,3.714,0,0,0-3.711,3.892v.045a3.737,3.737,0,1,0,7.467,0ZM334.6,794.2l1.72.769-1.991,1.539h-1.493Z" transform="translate(-179.637 -775.509)" fill="#6d6e71"/>
        <path id="Path_122" data-name="Path 122" d="M358.5,801.6h1.81l5.883,7.6v-7.6h1.9v11h-1.629l-6.064-7.83v7.83h-1.9Z" transform="translate(-196.389 -779.56)" fill="#6d6e71"/>
        <path id="Path_123" data-name="Path 123" d="M398.19,808.253,393.8,801.6h2.263l3.077,4.888,3.123-4.888h2.218l-4.39,6.608v4.39h-1.946v-4.345Z" transform="translate(-215.713 -779.56)" fill="#6d6e71"/>
        <path id="Path_124" data-name="Path 124" d="M430.6,806.9h0a5.557,5.557,0,0,1,5.657-5.7,5.724,5.724,0,0,1,4.3,1.72l-1.222,1.448a4.316,4.316,0,0,0-3.078-1.358,3.67,3.67,0,0,0-3.621,3.892v.045a3.7,3.7,0,0,0,3.621,3.892,4.261,4.261,0,0,0,3.168-1.448l1.222,1.267a5.71,5.71,0,0,1-4.48,1.946A5.565,5.565,0,0,1,430.6,806.9Z" transform="translate(-235.858 -779.341)" fill="#6d6e71"/>
        <path id="Path_125" data-name="Path 125" d="M455.5,806.9h0a5.748,5.748,0,0,1,11.5-.045v.045a5.748,5.748,0,0,1-11.5,0Zm9.459,0h0a3.762,3.762,0,0,0-3.756-3.937,3.713,3.713,0,0,0-3.711,3.892v.045a3.737,3.737,0,1,0,7.467,0Z" transform="translate(-249.489 -779.341)" fill="#6d6e71"/>
        <path id="Path_126" data-name="Path 126" d="M486.1,801.6h2.082l3.349,5.2,3.349-5.2h2.082v11h-1.946v-7.875l-3.485,5.2h-.045l-3.44-5.159v7.875h-1.9V801.6Z" transform="translate(-266.241 -779.56)" fill="#6d6e71"/>
        <path id="Path_127" data-name="Path 127" d="M515.9,807.881v-6.336h1.946v6.246c0,2.036,1.041,3.123,2.761,3.123s2.761-1.041,2.761-3.078V801.5h1.946v6.246c0,3.3-1.855,4.933-4.752,4.933C517.71,812.724,515.9,811.049,515.9,807.881Z" transform="translate(-282.554 -779.505)" fill="#6d6e71"/>
        <path id="Path_128" data-name="Path 128" d="M542.5,801.6h1.81l5.884,7.6v-7.6h1.9v11h-1.629l-6.065-7.83v7.83h-1.9Z" transform="translate(-297.116 -779.56)" fill="#6d6e71"/>
        <path id="Path_129" data-name="Path 129" d="M570.2,801.6h1.946v11H570.2Z" transform="translate(-312.279 -779.56)" fill="#6d6e71"/>
        <path id="Path_130" data-name="Path 130" d="M579.9,806.9h0a5.557,5.557,0,0,1,5.657-5.7,5.724,5.724,0,0,1,4.3,1.72l-1.222,1.448a4.316,4.316,0,0,0-3.077-1.358,3.67,3.67,0,0,0-3.621,3.892v.045a3.7,3.7,0,0,0,3.621,3.892,4.261,4.261,0,0,0,3.168-1.448l1.222,1.267a5.71,5.71,0,0,1-4.48,1.946A5.593,5.593,0,0,1,579.9,806.9Z" transform="translate(-317.589 -779.341)" fill="#6d6e71"/>
        <path id="Path_131" data-name="Path 131" d="M609.343,801.4h1.81L616,812.488h-2.037l-1.131-2.67h-5.2l-1.131,2.67H604.5Zm2.806,6.743-1.9-4.39-1.9,4.39Z" transform="translate(-331.056 -779.45)" fill="#6d6e71"/>
        <path id="Path_132" data-name="Path 132" d="M631.5,806.9h0a5.557,5.557,0,0,1,5.657-5.7,5.724,5.724,0,0,1,4.3,1.72l-1.222,1.448a4.316,4.316,0,0,0-3.077-1.358,3.67,3.67,0,0,0-3.621,3.892v.045a3.7,3.7,0,0,0,3.621,3.892,4.26,4.26,0,0,0,3.168-1.448l1.222,1.267a5.71,5.71,0,0,1-4.48,1.946A5.593,5.593,0,0,1,631.5,806.9Z" transform="translate(-345.837 -779.341)" fill="#6d6e71"/>
        <path id="Path_133" data-name="Path 133" d="M658.5,801.6h1.946v11H658.5Z" transform="translate(-360.617 -779.56)" fill="#6d6e71"/>
        <path id="Path_134" data-name="Path 134" d="M668.1,803.07h0a5.748,5.748,0,0,1,11.5-.045v.045a5.748,5.748,0,0,1-11.5,0Zm9.5,0h0a3.738,3.738,0,1,0-7.468-.045v.045a3.737,3.737,0,1,0,7.468,0Zm-2.761-8.87,1.72.769-1.991,1.539h-1.494Z" transform="translate(-365.873 -775.509)" fill="#6d6e71"/>
        <path id="Path_135" data-name="Path 135" d="M698.7,801.6h1.81l5.884,7.6v-7.6h1.9v11h-1.629l-6.065-7.83v7.83h-1.9Z" transform="translate(-382.624 -779.56)" fill="#6d6e71"/>
      </g>
    </g>
  </g>
</svg>
